<svg width="948" height="150" viewBox="0 0 948 150" fill="none" xmlns="http://www.w3.org/2000/svg">
<path d="M842.717 45.7033H827.766V146.73H842.717V45.7033ZM414.735 45.7033H399.784V146.73H414.735V45.7033ZM119.952 43.4014H136.984C132.433 28.5745 112.758 0.190496 72.081 0.190496C31.4035 0.190496 0 32.2574 0 74.7064C0 117.727 31.0281 149.222 72.081 149.222C112.743 149.222 132.433 120.219 136.608 106.361H120.14C115.605 115.393 101.217 133.633 72.081 133.633C40.8026 133.633 17.0311 108.472 17.0311 74.8969C17.0311 40.9091 40.8652 15.7477 72.081 15.7477C100.654 15.7477 114.838 33.9877 119.952 43.4014ZM232.148 96.2166C232.148 117.917 217.009 134.633 196.397 134.633C175.784 134.633 160.427 117.917 160.427 96.2166C160.427 74.5159 175.565 57.7998 196.397 57.7998C217.228 57.7998 232.148 74.5159 232.148 96.2166ZM231.96 146.73H246.911V45.7033H231.96V64.7529C228.942 58.0379 218.339 43.4332 195.818 43.4332C167.449 43.4332 145.116 66.1023 145.116 96.2483C145.116 126.394 167.449 149.063 195.818 149.063C218.339 149.063 228.754 134.665 231.96 127.744V146.73ZM265.068 146.73H280.019V0H265.068V146.73ZM348.894 146.73L387.492 45.7033H371.024L339.37 131.173L307.826 45.7033H291.374L329.987 146.73H348.894ZM399.597 28.0347H414.923V10.3662H399.597V28.0347ZM504.786 146.73H519.924V89.6921C519.924 64.1497 506.866 43.4014 479.059 43.4014C458.431 43.4014 449.736 57.0378 447.781 62.6098V45.7033H432.892V146.73H447.844V90.8351C447.844 71.4362 458.634 57.7998 476.604 57.7998C494.573 57.7998 504.754 71.0552 504.754 90.0731L504.786 146.73ZM675.081 146.73L618.123 67.8009L675.081 2.71457H655.391L588.799 79.5481V2.68283H572.394V146.73H588.862V101.217L606.8 80.6594L656.189 146.73H675.081ZM683.588 146.73H698.539V0H683.588V146.73ZM728.786 86.6124C730.184 78.4296 734.386 71.0118 740.651 65.6698C746.915 60.3277 754.838 57.4053 763.02 57.4188C782.882 57.4188 794.048 71.4362 797.082 86.6124H728.786ZM727.863 100.011H813.237C814.004 66.9754 792.234 43.3538 763.098 43.3538C734.525 43.3538 712.771 66.4039 712.771 96.169C712.771 125.934 734.338 148.984 763.473 148.984C793.375 148.984 808.139 128.045 811.955 114.219H797.019C793.047 122.68 783.398 134.856 763.52 134.856C743.643 134.856 729.114 119.489 727.957 100.09L727.863 100.011ZM827.672 28.0665H842.952V10.3662H827.625L827.672 28.0665ZM948 146.762V89.6921C948 64.1497 934.941 43.4014 907.135 43.4014C886.507 43.4014 877.811 57.0378 875.856 62.6098V45.7033H860.905V146.73H875.794V90.8351C875.794 71.4362 886.569 57.7998 904.554 57.7998C922.539 57.7998 932.705 71.0552 932.705 90.0731V146.73L948 146.762Z" fill="black"/>
</svg>
