<svg width="20" height="16" viewBox="0 0 20 16" fill="none" xmlns="http://www.w3.org/2000/svg">
<path d="M8 0C12.4183 0 16 2.79162 16 6.23619C16 9.68 12.4183 12.4716 8 12.4716C7.56006 12.4719 7.12055 12.4439 6.68419 12.3878L3.32571 14.5844C2.944 14.7863 2.80914 14.7642 2.9661 14.2697L3.64571 11.4674C1.45143 10.355 0 8.42743 0 6.23619C0 2.79238 3.58171 0 8 0ZM12.5006 6.14095L13.6206 5.056C13.6852 4.98888 13.7213 4.8993 13.7211 4.80613C13.721 4.71296 13.6848 4.62346 13.62 4.5565C13.5552 4.48954 13.4669 4.45034 13.3738 4.44715C13.2807 4.44397 13.19 4.47705 13.1208 4.53943L11.6518 5.96114V4.78628C11.6518 4.69091 11.6139 4.59944 11.5465 4.532C11.479 4.46456 11.3876 4.42667 11.2922 4.42667C11.1968 4.42667 11.1053 4.46456 11.0379 4.532C10.9705 4.59944 10.9326 4.69091 10.9326 4.78628V6.73448C10.9191 6.79005 10.9191 6.84804 10.9326 6.90362V8C10.9326 8.09538 10.9705 8.18685 11.0379 8.25429C11.1053 8.32173 11.1968 8.35962 11.2922 8.35962C11.3876 8.35962 11.479 8.32173 11.5465 8.25429C11.6139 8.18685 11.6518 8.09538 11.6518 8V6.96152L11.9771 6.64686L13.0651 8.19581C13.0923 8.23448 13.1268 8.26742 13.1667 8.29275C13.2066 8.31809 13.2511 8.33531 13.2977 8.34345C13.3442 8.35158 13.3919 8.35047 13.438 8.34017C13.4842 8.32987 13.5278 8.31059 13.5665 8.28343C13.6051 8.25626 13.6381 8.22175 13.6634 8.18185C13.6888 8.14196 13.706 8.09746 13.7141 8.05091C13.7223 8.00435 13.7211 7.95666 13.7108 7.91053C13.7005 7.86441 13.6813 7.82077 13.6541 7.78209L12.5006 6.14019V6.14095ZM10.2469 7.60686H9.13448V4.79771C9.13022 4.7053 9.09051 4.61808 9.02361 4.55419C8.9567 4.4903 8.86775 4.45464 8.77524 4.45464C8.68273 4.45464 8.59377 4.4903 8.52687 4.55419C8.45996 4.61808 8.42026 4.7053 8.416 4.79771V7.96648C8.416 8.16457 8.576 8.32609 8.77486 8.32609H10.2469C10.3422 8.32609 10.4337 8.28821 10.5011 8.22077C10.5686 8.15332 10.6065 8.06185 10.6065 7.96648C10.6065 7.8711 10.5686 7.77963 10.5011 7.71219C10.4337 7.64475 10.3422 7.60686 10.2469 7.60686ZM5.78438 6.77486L6.31467 5.47429L6.80076 6.77486H5.78438ZM7.70667 7.14667L7.70819 7.13448C7.70801 7.04388 7.67342 6.95673 7.61143 6.89067L6.81448 4.75733C6.78107 4.65567 6.71743 4.56662 6.63207 4.50209C6.54671 4.43756 6.44368 4.40061 6.33676 4.39619C6.22906 4.39572 6.12376 4.42805 6.03489 4.48889C5.94601 4.54973 5.87777 4.63619 5.83924 4.73676L4.57371 7.84152C4.55585 7.88525 4.54678 7.93206 4.54701 7.97929C4.54725 8.02652 4.55678 8.07324 4.57507 8.11679C4.59336 8.16034 4.62004 8.19985 4.6536 8.23309C4.68716 8.26632 4.72694 8.29262 4.77067 8.31048C4.81439 8.32834 4.8612 8.33741 4.90843 8.33718C4.95567 8.33694 5.00239 8.32741 5.04593 8.30912C5.08948 8.29083 5.129 8.26415 5.16223 8.23059C5.19546 8.19703 5.22176 8.15725 5.23962 8.11352L5.49105 7.4941H7.06819L7.296 8.10362C7.31149 8.14918 7.33596 8.19117 7.36797 8.2271C7.39999 8.26303 7.43888 8.29217 7.48236 8.31279C7.52584 8.33341 7.57301 8.3451 7.62109 8.34716C7.66917 8.34922 7.71717 8.34161 7.76225 8.32478C7.80733 8.30795 7.84858 8.28225 7.88355 8.24918C7.91851 8.21612 7.94649 8.17638 7.96582 8.13231C7.98515 8.08824 7.99543 8.04074 7.99607 7.99263C7.99671 7.94451 7.98768 7.89675 7.96952 7.85219L7.70667 7.14667ZM5.17562 4.80152C5.17562 4.70628 5.13784 4.61492 5.07056 4.5475C5.00328 4.48008 4.91201 4.44211 4.81676 4.4419H2.34438C2.249 4.4419 2.15753 4.47979 2.09009 4.54723C2.02265 4.61468 1.98476 4.70615 1.98476 4.80152C1.98476 4.8969 2.02265 4.98837 2.09009 5.05581C2.15753 5.12325 2.249 5.16114 2.34438 5.16114H3.22819V8.00762C3.22819 8.103 3.26608 8.19447 3.33352 8.26191C3.40096 8.32935 3.49243 8.36724 3.58781 8.36724C3.68319 8.36724 3.77466 8.32935 3.8421 8.26191C3.90954 8.19447 3.94743 8.103 3.94743 8.00762V5.16114H4.816C5.01486 5.16114 5.17562 4.99962 5.17562 4.80152Z" fill="black"/>
</svg>
